<?xml version="1.0" encoding="utf-8"?>
<!-- Generator: Adobe Illustrator 22.1.0, SVG Export Plug-In . SVG Version: 6.00 Build 0)  -->
<svg version="1.1" id="Layer_1" xmlns="http://www.w3.org/2000/svg" xmlns:xlink="http://www.w3.org/1999/xlink" x="0px" y="0px"
	 viewBox="0 0 30 30" style="enable-background:new 0 0 30 30;" xml:space="preserve">
<style type="text/css">
	.st0{fill:#4D4D4D;}
	.st1{fill:url(#SVGID_1_);}
	.st2{fill:url(#SVGID_2_);}
	.st3{fill:url(#SVGID_3_);}
	.st4{fill:url(#SVGID_4_);}
	.st5{fill:url(#SVGID_5_);}
	.st6{fill:url(#SVGID_6_);}
	.st7{fill:url(#SVGID_7_);}
	.st8{fill:url(#SVGID_8_);}
</style>
<title>SClogo</title>
<desc>Created with Sketch.</desc>
<path id="Icon_1_" class="st0" d="M22.9,2.6H7.1c-3.3,0-5.9,2.5-5.9,5.5v14.6c0,3,2.7,5.5,5.9,5.5h15.8c3.3,0,5.9-2.5,5.9-5.5V8.1
	C28.8,5.1,26.2,2.6,22.9,2.6z"/>
<g id="Logo_1_">
	<linearGradient id="SVGID_1_" gradientUnits="userSpaceOnUse" x1="4.1686" y1="24.3523" x2="20.2996" y2="-0.8523">
		<stop  offset="0" style="stop-color:#7296FF"/>
		<stop  offset="0.1606" style="stop-color:#5EA9F1"/>
		<stop  offset="0.7312" style="stop-color:#1AE7C4"/>
		<stop  offset="0.9987" style="stop-color:#00FFB2"/>
		<stop  offset="1" style="stop-color:#02FAB3"/>
	</linearGradient>
	<path class="st1" d="M8.1,25.1L22.3,5.7h-9.9c-2.4,0-4.3,1.8-4.3,4V25.1z"/>
	<linearGradient id="SVGID_2_" gradientUnits="userSpaceOnUse" x1="18.909" y1="8.8615" x2="24.3635" y2="18.309">
		<stop  offset="0" style="stop-color:#7296FF"/>
		<stop  offset="0.1606" style="stop-color:#5EA9F1"/>
		<stop  offset="0.7312" style="stop-color:#1AE7C4"/>
		<stop  offset="0.9987" style="stop-color:#00FFB2"/>
		<stop  offset="1" style="stop-color:#02FAB3"/>
	</linearGradient>
	<path class="st2" d="M16.4,13.7L16.4,13.7c2.1,2,5.9,0.7,5.9-2.2V5.7h0L16.4,13.7z"/>
	<linearGradient id="SVGID_3_" gradientUnits="userSpaceOnUse" x1="8.1221" y1="15.3555" x2="17.0366" y2="15.3555">
		<stop  offset="0" style="stop-color:#7296FF"/>
		<stop  offset="0.1606" style="stop-color:#5EA9F1"/>
		<stop  offset="0.7312" style="stop-color:#1AE7C4"/>
		<stop  offset="0.9987" style="stop-color:#00FFB2"/>
		<stop  offset="1" style="stop-color:#02FAB3"/>
	</linearGradient>
	<path class="st3" d="M8.1,25.1V9.6c0-2.2,1.9-4,4.3-4H17L8.1,25.1z"/>
	<linearGradient id="SVGID_4_" gradientUnits="userSpaceOnUse" x1="8.1221" y1="15.3555" x2="12.4025" y2="15.3555">
		<stop  offset="0" style="stop-color:#7296FF"/>
		<stop  offset="0.1606" style="stop-color:#5EA9F1"/>
		<stop  offset="0.7312" style="stop-color:#1AE7C4"/>
		<stop  offset="0.9987" style="stop-color:#00FFB2"/>
		<stop  offset="1" style="stop-color:#02FAB3"/>
	</linearGradient>
	<path class="st4" d="M8.1,25.1V9.6c0-2.2,1.9-4,4.3-4l0,0L8.1,25.1z"/>
	<linearGradient id="SVGID_5_" gradientUnits="userSpaceOnUse" x1="16.4421" y1="10.105" x2="22.3057" y2="10.105">
		<stop  offset="0" style="stop-color:#7296FF"/>
		<stop  offset="0.1606" style="stop-color:#5EA9F1"/>
		<stop  offset="0.7312" style="stop-color:#1AE7C4"/>
		<stop  offset="0.9987" style="stop-color:#00FFB2"/>
		<stop  offset="1" style="stop-color:#02FAB3"/>
	</linearGradient>
	<path class="st5" d="M22.3,5.7l-5.9,8c0.5,0.5,1,0.7,1.6,0.9L22.3,5.7z"/>
	<linearGradient id="SVGID_6_" gradientUnits="userSpaceOnUse" x1="23.2765" y1="1.6932" x2="16.3705" y2="15.8029">
		<stop  offset="0" style="stop-color:#7296FF"/>
		<stop  offset="0.1606" style="stop-color:#5EA9F1"/>
		<stop  offset="0.7312" style="stop-color:#1AE7C4"/>
		<stop  offset="0.9987" style="stop-color:#00FFB2"/>
		<stop  offset="1" style="stop-color:#02FAB3"/>
	</linearGradient>
	<path class="st6" d="M22.3,5.7l-5.9,8c0.1,0.1,0.2,0.2,0.3,0.3L22.3,5.7z"/>
	<linearGradient id="SVGID_7_" gradientUnits="userSpaceOnUse" x1="8.0937" y1="15.3555" x2="17.0366" y2="15.3555">
		<stop  offset="0" style="stop-color:#7296FF"/>
		<stop  offset="0.1606" style="stop-color:#5EA9F1"/>
		<stop  offset="0.7312" style="stop-color:#1AE7C4"/>
		<stop  offset="0.9987" style="stop-color:#00FFB2"/>
		<stop  offset="1" style="stop-color:#02FAB3"/>
	</linearGradient>
	<polygon class="st7" points="17,5.7 8.1,25.1 8.1,24.5 	"/>
	<linearGradient id="SVGID_8_" gradientUnits="userSpaceOnUse" x1="8.0937" y1="15.3555" x2="12.4025" y2="15.3555">
		<stop  offset="0" style="stop-color:#7296FF"/>
		<stop  offset="0.1606" style="stop-color:#5EA9F1"/>
		<stop  offset="0.7312" style="stop-color:#1AE7C4"/>
		<stop  offset="0.9987" style="stop-color:#00FFB2"/>
		<stop  offset="1" style="stop-color:#02FAB3"/>
	</linearGradient>
	<polygon class="st8" points="12.4,5.7 8.1,25.1 8.1,23.9 	"/>
</g>
</svg>
