<?xml version="1.0" encoding="utf-8"?>
<!-- Generator: Adobe Illustrator 22.1.0, SVG Export Plug-In . SVG Version: 6.00 Build 0)  -->
<svg version="1.1" id="Layer_1" xmlns="http://www.w3.org/2000/svg" xmlns:xlink="http://www.w3.org/1999/xlink" x="0px" y="0px"
	 viewBox="0 0 2353 2500" style="enable-background:new 0 0 2353 2500;" xml:space="preserve">
<style type="text/css">
	.st0{fill:#4D4D4D;}
	.st1{fill:url(#SVGID_1_);}
	.st2{fill:url(#SVGID_2_);}
	.st3{fill:url(#SVGID_3_);}
	.st4{fill:url(#SVGID_4_);}
	.st5{fill:url(#SVGID_5_);}
	.st6{fill:url(#SVGID_6_);}
	.st7{fill:url(#SVGID_7_);}
	.st8{fill:url(#SVGID_8_);}
</style>
<path id="Icon_1_" class="st0" d="M1829.1,135.9H521.3c-272.1,0-492.6,214.4-492.6,479v1271.5c0,264.5,220.6,479,492.6,479h1307.8
	c272.1,0,492.7-214.5,492.7-479V614.9C2321.7,350.3,2101.2,135.9,1829.1,135.9z"/>
<g id="Logo_1_">
	<linearGradient id="SVGID_1_" gradientUnits="userSpaceOnUse" x1="238.5918" y1="2016.1085" x2="1623.5519" y2="-147.8951">
		<stop  offset="0" style="stop-color:#7296FF"/>
		<stop  offset="0.1606" style="stop-color:#5EA9F1"/>
		<stop  offset="0.7312" style="stop-color:#1AE7C4"/>
		<stop  offset="0.9987" style="stop-color:#00FFB2"/>
		<stop  offset="1" style="stop-color:#02FAB3"/>
	</linearGradient>
	<path class="st1" d="M604.7,2093.4L1781.2,401.7H959.7c-196.1,0-355.1,154.6-355.1,345.2V2093.4z"/>
	<linearGradient id="SVGID_2_" gradientUnits="userSpaceOnUse" x1="1494.6284" y1="676.2072" x2="1973.2247" y2="1505.1604">
		<stop  offset="0" style="stop-color:#7296FF"/>
		<stop  offset="0.1606" style="stop-color:#5EA9F1"/>
		<stop  offset="0.7312" style="stop-color:#1AE7C4"/>
		<stop  offset="0.9987" style="stop-color:#00FFB2"/>
		<stop  offset="1" style="stop-color:#02FAB3"/>
	</linearGradient>
	<path class="st2" d="M1294.8,1101L1294.8,1101c176.2,178.6,486.4,57.3,486.4-190.2V401.7h0L1294.8,1101z"/>
	<linearGradient id="SVGID_3_" gradientUnits="userSpaceOnUse" x1="604.6788" y1="1247.53" x2="1344.1462" y2="1247.53">
		<stop  offset="0" style="stop-color:#7296FF"/>
		<stop  offset="0.1606" style="stop-color:#5EA9F1"/>
		<stop  offset="0.7312" style="stop-color:#1AE7C4"/>
		<stop  offset="0.9987" style="stop-color:#00FFB2"/>
		<stop  offset="1" style="stop-color:#02FAB3"/>
	</linearGradient>
	<path class="st3" d="M604.7,2093.4V746.9c0-190.7,159-345.2,355.1-345.2h384.4L604.7,2093.4z"/>
	<linearGradient id="SVGID_4_" gradientUnits="userSpaceOnUse" x1="604.6788" y1="1247.53" x2="959.738" y2="1247.53">
		<stop  offset="0" style="stop-color:#7296FF"/>
		<stop  offset="0.1606" style="stop-color:#5EA9F1"/>
		<stop  offset="0.7312" style="stop-color:#1AE7C4"/>
		<stop  offset="0.9987" style="stop-color:#00FFB2"/>
		<stop  offset="1" style="stop-color:#02FAB3"/>
	</linearGradient>
	<path class="st4" d="M604.7,2093.4V746.9c0-190.7,159-345.2,355.1-345.2l0,0L604.7,2093.4z"/>
	<linearGradient id="SVGID_5_" gradientUnits="userSpaceOnUse" x1="1294.8269" y1="789.5948" x2="1781.2173" y2="789.5948">
		<stop  offset="0" style="stop-color:#7296FF"/>
		<stop  offset="0.1606" style="stop-color:#5EA9F1"/>
		<stop  offset="0.7312" style="stop-color:#1AE7C4"/>
		<stop  offset="0.9987" style="stop-color:#00FFB2"/>
		<stop  offset="1" style="stop-color:#02FAB3"/>
	</linearGradient>
	<path class="st5" d="M1781.2,401.7L1294.8,1101c39.2,39.7,84.9,64.5,132.5,76.5L1781.2,401.7z"/>
	<linearGradient id="SVGID_6_" gradientUnits="userSpaceOnUse" x1="1874.1401" y1="64.6403" x2="1279.0796" y2="1280.4108">
		<stop  offset="0" style="stop-color:#7296FF"/>
		<stop  offset="0.1606" style="stop-color:#5EA9F1"/>
		<stop  offset="0.7312" style="stop-color:#1AE7C4"/>
		<stop  offset="0.9987" style="stop-color:#00FFB2"/>
		<stop  offset="1" style="stop-color:#02FAB3"/>
	</linearGradient>
	<path class="st6" d="M1781.2,401.7L1294.8,1101c8.6,8.7,17.5,16.5,26.6,23.8L1781.2,401.7z"/>
	<linearGradient id="SVGID_7_" gradientUnits="userSpaceOnUse" x1="602.3192" y1="1247.53" x2="1344.1462" y2="1247.53">
		<stop  offset="0" style="stop-color:#7296FF"/>
		<stop  offset="0.1606" style="stop-color:#5EA9F1"/>
		<stop  offset="0.7312" style="stop-color:#1AE7C4"/>
		<stop  offset="0.9987" style="stop-color:#00FFB2"/>
		<stop  offset="1" style="stop-color:#02FAB3"/>
	</linearGradient>
	<polygon class="st7" points="1344.1,401.7 604.7,2093.4 602.3,2047.3 	"/>
	<linearGradient id="SVGID_8_" gradientUnits="userSpaceOnUse" x1="602.3192" y1="1247.53" x2="959.738" y2="1247.53">
		<stop  offset="0" style="stop-color:#7296FF"/>
		<stop  offset="0.1606" style="stop-color:#5EA9F1"/>
		<stop  offset="0.7312" style="stop-color:#1AE7C4"/>
		<stop  offset="0.9987" style="stop-color:#00FFB2"/>
		<stop  offset="1" style="stop-color:#02FAB3"/>
	</linearGradient>
	<polygon class="st8" points="959.7,401.7 604.7,2093.4 602.3,1994.7 	"/>
</g>
</svg>
