<?xml version="1.0" encoding="utf-8"?>
<!-- Generator: Adobe Illustrator 22.1.0, SVG Export Plug-In . SVG Version: 6.00 Build 0)  -->
<svg version="1.1" id="Layer_1" xmlns="http://www.w3.org/2000/svg" xmlns:xlink="http://www.w3.org/1999/xlink" x="0px" y="0px"
	 viewBox="0 0 87 30" style="enable-background:new 0 0 87 30;" xml:space="preserve">
<style type="text/css">
	.st0{font-family:'Rajdhani-Regular';}
	.st1{font-size:22px;}
	.st2{fill:url(#SVGID_1_);}
	.st3{fill:url(#SVGID_2_);}
	.st4{fill:url(#SVGID_3_);}
	.st5{fill:none;}
	.st6{fill:url(#SVGID_4_);}
	.st7{fill:url(#SVGID_5_);}
	.st8{fill:url(#SVGID_6_);}
	.st9{fill:url(#SVGID_7_);}
</style>
<title>SClogo</title>
<desc>Created with Sketch.</desc>
<g id="v2-Hot-Sign-In-">
	<g id="Confirmation-Single-Transaction" transform="translate(-487.000000, -195.000000)">
		<g id="Page-1_2_" transform="translate(470.000000, 180.000000)">
			<text transform="matrix(1 0 0 1 41.4791 36.932)" class="st0 st1">dPayID</text>
			<g id="Logo_3_">
				<linearGradient id="SVGID_1_" gradientUnits="userSpaceOnUse" x1="13.7853" y1="42.3145" x2="36.2797" y2="7.1668">
					<stop  offset="1.241990e-03" style="stop-color:#A657FF"/>
					<stop  offset="0.2649" style="stop-color:#A063FF"/>
					<stop  offset="1" style="stop-color:#9180FF"/>
				</linearGradient>
				<path class="st2" d="M19.7,43.5l19.2-27.4H25.5c-3.2,0-5.8,2.5-5.8,5.6V43.5z"/>
				<linearGradient id="SVGID_2_" gradientUnits="userSpaceOnUse" x1="34.9022" y1="18.1946" x2="34.9022" y2="39.3097">
					<stop  offset="1.241990e-03" style="stop-color:#7D60FF"/>
					<stop  offset="0.3208" style="stop-color:#AA97FF"/>
					<stop  offset="0.785" style="stop-color:#E7E2FF"/>
					<stop  offset="1" style="stop-color:#FFFFFF"/>
				</linearGradient>
				<path class="st3" d="M30.9,27.4L30.9,27.4c2.9,2.9,7.9,0.9,7.9-3.1v-8.3h0L30.9,27.4z"/>
				<linearGradient id="SVGID_3_" gradientUnits="userSpaceOnUse" x1="19.6797" y1="29.8237" x2="31.7402" y2="29.8237">
					<stop  offset="0" style="stop-color:#CDB5FF"/>
					<stop  offset="9.056085e-02" style="stop-color:#C4A7FF"/>
					<stop  offset="0.7167" style="stop-color:#894EFF"/>
					<stop  offset="1" style="stop-color:#722AFF"/>
				</linearGradient>
				<path class="st4" d="M19.7,43.5V21.7c0-3.1,2.6-5.6,5.8-5.6h6.3L19.7,43.5z"/>
				<path class="st5" d="M19.7,43.5V21.7c0-3.1,2.6-5.6,5.8-5.6l0,0L19.7,43.5z"/>
				<linearGradient id="SVGID_4_" gradientUnits="userSpaceOnUse" x1="40.5333" y1="10.667" x2="30.797" y2="30.5593">
					<stop  offset="0" style="stop-color:#D9A7DE"/>
					<stop  offset="0.5665" style="stop-color:#F0DBF2"/>
					<stop  offset="1" style="stop-color:#FFFFFF"/>
				</linearGradient>
				<path class="st6" d="M38.9,16.1l-7.9,11.3c0.6,0.6,1.4,1,2.2,1.2L38.9,16.1z"/>
				<linearGradient id="SVGID_5_" gradientUnits="userSpaceOnUse" x1="40.3594" y1="10.6304" x2="30.6986" y2="30.3685">
					<stop  offset="0" style="stop-color:#D9A7DE"/>
					<stop  offset="0.5665" style="stop-color:#F0DBF2"/>
					<stop  offset="1" style="stop-color:#FFFFFF"/>
				</linearGradient>
				<path class="st7" d="M38.9,16.1l-7.9,11.3c0.1,0.1,0.3,0.3,0.4,0.4L38.9,16.1z"/>
				
					<radialGradient id="SVGID_6_" cx="-30.5371" cy="58.2921" r="78.0168" gradientTransform="matrix(0.4728 0 0 0.457 18.4149 -10.9987)" gradientUnits="userSpaceOnUse">
					<stop  offset="0" style="stop-color:#FFFFFF"/>
					<stop  offset="0.1626" style="stop-color:#DBDBDB"/>
					<stop  offset="0.5253" style="stop-color:#808080"/>
					<stop  offset="1" style="stop-color:#000000"/>
				</radialGradient>
				<polygon class="st8" points="31.7,16.1 19.7,43.5 19.6,42.8 				"/>
				
					<radialGradient id="SVGID_7_" cx="-0.359" cy="51.5772" r="61.9731" gradientTransform="matrix(0.4728 0 0 0.457 18.4149 -10.9987)" gradientUnits="userSpaceOnUse">
					<stop  offset="0" style="stop-color:#FFFFFF"/>
					<stop  offset="0.1626" style="stop-color:#DBDBDB"/>
					<stop  offset="0.5253" style="stop-color:#808080"/>
					<stop  offset="1" style="stop-color:#000000"/>
				</radialGradient>
				<polygon class="st9" points="25.5,16.1 19.7,43.5 19.6,41.9 				"/>
			</g>
		</g>
	</g>
</g>
</svg>
